<svg width="43" height="24" viewBox="0 0 43 24" fill="none" xmlns="http://www.w3.org/2000/svg">
    <g clip-path="url(#clip0_1_257)">
        <path d="M12.5 3C12.5 2.17031 11.8297 1.5 11 1.5C10.1703 1.5 9.5 2.17031 9.5 3V18.75C9.5 20.8219 11.1781 22.5 13.25 22.5H32C32.8297 22.5 33.5 21.8297 33.5 21C33.5 20.1703 32.8297 19.5 32 19.5H13.25C12.8375 19.5 12.5 19.1625 12.5 18.75V3ZM31.5594 7.05938C32.1453 6.47344 32.1453 5.52188 31.5594 4.93594C30.9734 4.35 30.0219 4.35 29.4359 4.93594L24.5 9.87656L21.8094 7.18594C21.2234 6.6 20.2719 6.6 19.6859 7.18594L14.4359 12.4359C13.85 13.0219 13.85 13.9734 14.4359 14.5594C15.0219 15.1453 15.9734 15.1453 16.5594 14.5594L20.75 10.3734L23.4406 13.0641C24.0266 13.65 24.9781 13.65 25.5641 13.0641L31.5641 7.06406L31.5594 7.05938Z"
              fill="black"/>
    </g>
    <defs>
        <clipPath id="clip0_1_257">
            <path d="M9.5 0H33.5V24H9.5V0Z" fill="white"/>
        </clipPath>
    </defs>
</svg>